<svg width="3918" height="665" viewBox="0 0 3918 665" fill="none" xmlns="http://www.w3.org/2000/svg">
<path d="M194.4 82.2663C195.067 114.266 196.667 124 204 141.866C221.067 183.6 259.733 211.333 300.667 211.333C313.6 211.333 314.8 210.533 312.667 203.866C307.467 187.2 294.8 167.333 279.467 151.066L268.933 140L274.8 133.6L280.667 127.066L284.267 129.733C296.133 138.4 313.867 160.4 323.2 178.133L329.6 190.133L334.8 183.733C356.8 156.533 407.067 112.4 413.733 114.533C415.067 114.933 418.667 118 421.867 121.2L427.467 126.933L420.4 131.466C403.333 142.4 365.467 176.533 357.333 188.266C355.333 191.066 355.467 191.333 360.933 194.533C364.133 196.4 372.133 199.733 378.8 201.866C400.667 209.2 423.333 207.333 446 196.266C455.333 191.733 459.6 188.533 470.133 178C483.733 164.533 490 155.066 496.933 137.2C503.333 120.533 504.8 111.466 505.6 80.933L506.4 52.6663H481.2C438.533 52.6663 416.133 56.7997 390.667 69.1997C367.6 80.533 350.133 96.933 340.667 116.266L336.4 124.8L329.6 113.333C320.933 98.7997 312 88.7997 298.933 79.0663C274.533 61.0663 246.267 52.6663 209.467 52.6663H193.733L194.4 82.2663Z" fill="#4C8C4A"/>
<path d="M141.867 229.066C132.667 232.933 128.933 235.733 122 244.133C114.933 252.666 112 261.466 112 273.999C112.133 282.399 112.8 285.466 116.133 292.666C121.467 303.866 129.467 311.866 140.267 316.933C151.6 322.266 165.2 322.666 177.333 318C188.4 313.733 200.4 301.733 204.533 290.666C209.2 278.399 208.933 264.799 203.6 253.599C198.8 243.199 191.2 235.466 180.933 230.399C174.667 227.333 171.333 226.666 161.333 226.266C151.2 225.999 148.133 226.399 141.867 229.066Z" fill="#6B3E75"/>
<path d="M255.733 228.533C247.2 231.733 242.666 234.8 236.133 242C227.733 251.333 225.466 258 225.333 273.333C225.333 286 225.6 287.067 229.866 295.067C235.066 304.533 242.933 312.133 252.4 316.8C257.733 319.467 260.8 320 272 320C284 320 286.133 319.6 293.333 316.133C303.066 311.333 311.333 302.933 316.266 292.933C319.466 286.267 320 283.733 320 273.333C320 263.067 319.466 260.267 316.4 253.733C312.133 244.4 303.2 235.333 293.733 230.533C284.133 225.6 266.266 224.667 255.733 228.533Z" fill="#6B3E75"/>
<path d="M369.866 228C354.8 232.8 342.533 246.133 338.533 262C335.733 273.067 336.666 282.4 341.733 293.333C346.666 303.733 353.866 311.067 364.133 316.133C371.2 319.6 373.333 320 384.666 320C395.6 320 398.4 319.467 404.933 316.4C414.666 311.867 423.2 303.333 428 293.2C431.333 286.4 431.866 283.733 431.866 273.333C432 263.067 431.466 260.267 428.533 253.867C423.6 243.333 416.533 236.133 406.266 231.067C398.8 227.333 395.733 226.667 386.666 226.4C380.133 226.133 373.6 226.8 369.866 228Z" fill="#6B3E75"/>
<path d="M480.267 228.667C468.134 233.333 459.601 241.467 453.601 254C449.867 261.6 449.334 264 449.467 273.333C449.467 282.533 450.134 285.467 453.601 292.8C471.334 330.8 523.334 330.667 541.201 292.667C544.667 285.2 545.201 282.533 545.067 273.333C545.067 264.533 544.401 261.067 541.334 254.267C536.534 243.6 525.201 232.667 514.667 228.8C504.934 225.2 489.334 225.067 480.267 228.667Z" fill="#6B3E75"/>
<path d="M198.267 326.133C188.667 329.866 176.534 341.333 172.667 350.266C168.134 360.666 167.467 376.266 171.2 386.266C183.734 419.333 226.934 428.533 250.8 403.066C260.134 393.066 263.867 383.6 263.867 370.666C263.867 356.666 259.467 346.266 249.2 336.666C239.334 327.333 232.134 324.4 217.334 323.733C207.467 323.466 204 323.866 198.267 326.133Z" fill="#6B3E75"/>
<path d="M312.4 325.6C287.067 334.4 273.867 364.667 284.667 389.6C288.267 398.133 300.667 410.267 309.6 414.267C322.534 420 341.6 418.533 353.867 410.8C372.4 398.933 380.534 374.533 372.667 353.733C368.934 343.6 358.8 332.533 349.067 327.733C339.6 323.2 322.4 322.133 312.4 325.6Z" fill="#6B3E75"/>
<path d="M426.667 325.066C404.801 332.399 390.534 353.999 393.201 375.866C396.401 401.066 419.067 419.466 444.667 417.733C461.334 416.533 476.134 406.666 484.267 391.066C487.601 384.666 488.001 382.666 488.001 370.666C488.001 358.533 487.601 356.666 484.001 349.599C479.601 340.666 470.401 331.733 461.067 327.333C453.201 323.466 434.934 322.399 426.667 325.066Z" fill="#6B3E75"/>
<path d="M254.933 423.867C233.867 432.667 223.733 449.067 224.933 471.867C226.133 494 240 510.267 261.867 515.333C283.2 520.267 306.667 508.533 316.933 487.6C319.467 482.4 320 479.2 320 468.667C320 457.733 319.467 454.933 316.4 448.4C311.867 438.667 302.533 429.333 292.933 424.933C281.733 419.867 265.6 419.333 254.933 423.867Z" fill="#6B3E75"/>
<path d="M369.2 423.066C344.667 431.733 331.467 457.199 338.8 481.999C342.8 495.466 352.134 506.133 365.867 512.399C372.134 515.333 375.2 515.999 384.667 515.866C399.467 515.866 409.6 511.599 419.334 501.199C429.467 490.399 432 483.999 432 468.666C432 457.333 431.6 455.199 428.134 447.999C423.2 438.266 414.267 429.333 404.667 424.799C394.934 420.266 379.2 419.466 369.2 423.066Z" fill="#6B3E75"/>
<path d="M314.8 518.8C306.133 521.6 299.866 525.733 292.933 533.2C283.733 543.2 281.333 549.733 281.333 564.667C281.333 575.733 281.733 578.267 284.933 584.8C289.733 594.4 298.933 603.6 308.4 608.267C315.066 611.467 317.6 611.867 328.666 612C340 612 342.133 611.6 349.2 608.133C359.333 603.2 367.2 595.333 372.133 585.2C375.6 578.133 376 576 376 564.667C376 553.733 375.466 550.933 372.4 544.4C364.933 528.267 349.6 518.133 331.466 517.2C324.666 516.8 319.2 517.333 314.8 518.8Z" fill="#6B3E75"/>
<path d="M817.291 176.928C768.713 192.716 734.708 224.899 717.098 271.048C701.31 312.34 706.776 385.207 728.028 421.64C756.568 470.826 798.467 493.293 862.833 493.293C893.194 493.293 904.731 490.257 923.555 478.112C935.7 469.004 946.63 462.932 947.237 464.146C959.989 493.293 981.242 500.58 1000.07 483.577C1010.39 474.469 1011.6 464.753 1011.6 402.209C1011.6 355.453 1009.17 329.342 1004.32 324.484C994.6 314.769 876.799 314.769 867.083 324.484C857.975 333.593 857.975 355.453 867.083 364.561C871.334 368.812 888.943 371.848 905.946 371.848C923.555 371.848 939.343 373.67 940.557 376.098C946.022 385.207 933.271 407.067 915.054 419.819C859.796 459.288 794.216 427.713 783.286 356.06C777.821 317.198 785.715 282.586 806.361 258.904C841.58 218.827 888.336 220.649 929.627 262.547C953.916 287.443 967.275 291.694 987.921 280.764C1014.64 266.191 993.386 213.969 949.666 189.68C930.235 178.75 913.232 175.107 878.013 173.892C853.117 172.678 825.792 173.892 817.291 176.928Z" fill="#1E3C59"/>
<path d="M1519.85 184.822C1510.74 193.323 1482.2 252.832 1448.8 330.556C1393.55 459.288 1392.33 462.932 1402.66 478.112C1409.33 488.435 1417.84 493.293 1430.59 493.293C1452.45 493.293 1463.38 482.97 1476.13 447.751L1487.06 420.426H1549.6H1612.15L1619.44 444.715C1628.54 475.076 1645.55 493.293 1664.37 493.293C1685.62 493.293 1705.66 472.04 1700.2 455.038C1694.12 435.607 1629.15 278.942 1607.29 230.971C1579.97 172.071 1550.82 156.283 1519.85 184.822ZM1566 305.053C1574.5 326.913 1583 349.38 1585.43 354.846C1589.07 364.561 1585.43 365.776 1549 365.776C1512.56 365.776 1508.92 364.561 1511.96 354.846C1528.35 311.732 1548.39 262.547 1549.6 263.762C1550.21 264.976 1557.5 283.193 1566 305.053Z" fill="#1E3C59"/>
<path d="M2573.13 179.968C2559.78 185.433 2539.74 198.792 2529.41 210.329C2512.41 229.153 2509.38 236.44 2509.38 263.158C2509.38 291.09 2511.8 296.555 2532.45 317.201C2550.06 334.81 2565.85 343.312 2600.46 353.634C2668.47 373.066 2685.47 382.781 2685.47 402.213C2685.47 421.644 2676.36 430.752 2648.43 438.646C2616.25 448.362 2584.67 436.217 2565.85 407.678C2539.13 367.601 2502.09 368.208 2498.45 409.499C2496.02 436.217 2519.09 465.971 2554.92 481.759C2591.96 498.761 2668.47 497.547 2703.69 479.33C2743.16 459.899 2760.16 431.967 2757.12 391.282C2752.87 345.133 2734.05 326.917 2667.25 307.485C2594.39 285.625 2582.85 280.767 2579.21 268.623C2573.74 251.621 2582.24 239.476 2604.71 231.582C2630.82 223.081 2669.68 232.797 2679.4 250.406C2697.62 284.411 2727.37 291.09 2744.37 264.98C2754.09 249.799 2754.09 247.977 2742.55 226.724C2718.87 182.397 2632.64 158.108 2573.13 179.968Z" fill="#1E3C59"/>
<path d="M2846.38 178.75C2839.71 182.393 2832.42 188.466 2829.99 192.109C2827.56 195.752 2825.13 260.726 2825.13 336.629C2825.13 487.828 2826.35 493.293 2861.57 493.293C2889.5 493.293 2898 475.076 2898 413.139V359.703H2958.72H3019.44V416.783C3019.44 480.541 3025.52 493.293 3055.27 493.293C3090.49 493.293 3092.31 484.792 3092.31 334.807C3092.31 260.118 3089.88 195.752 3087.45 192.109C3072.88 169.642 3032.2 170.249 3023.09 192.716C3021.27 198.181 3019.44 224.292 3019.44 251.01V298.981H2958.72H2898V247.974C2898 200.003 2896.78 195.752 2882.21 184.215C2863.39 169.642 2862.78 169.642 2846.38 178.75Z" fill="#1E3C59"/>
<path d="M3268.41 176.931C3193.11 201.22 3153.03 266.801 3160.93 351.812C3167.61 419.214 3205.86 470.828 3262.94 487.831C3298.16 498.153 3362.53 495.117 3392.89 481.758C3477.9 444.11 3506.44 324.487 3450.57 236.439C3424.46 195.148 3387.42 175.717 3329.74 173.895C3304.23 172.681 3276.91 173.895 3268.41 176.931ZM3369.81 251.013C3391.07 271.051 3402 298.983 3402 336.024C3402 399.783 3368.6 435.002 3312.73 430.751C3261.73 427.108 3237.44 396.747 3236.83 335.417C3236.22 291.09 3252.01 257.692 3281.16 242.511C3308.48 227.938 3348.56 231.581 3369.81 251.013Z" fill="#1E3C59"/>
<path d="M1097.83 191.502C1085.07 204.861 1084.47 210.326 1084.47 336.022C1084.47 481.148 1087.5 493.293 1120.9 493.293C1148.83 493.293 1157.33 475.076 1157.33 413.139C1157.33 360.918 1157.33 359.703 1171.91 359.703C1189.52 359.703 1194.38 364.561 1245.99 430.142C1267.85 458.074 1290.92 484.185 1297 487.221C1327.36 503.616 1362.58 483.577 1355.29 454.431C1351.65 439.857 1281.82 365.776 1272.1 365.776C1258.13 365.776 1269.06 354.846 1285.46 351.202C1312.78 345.737 1343.15 312.947 1348.61 282.586C1351.65 263.154 1349.83 250.403 1340.11 229.15C1321.29 186.644 1297 177.536 1193.16 177.536C1114.83 177.536 1109.97 178.143 1097.83 191.502ZM1269.06 251.617C1282.42 270.441 1281.21 278.942 1263.6 295.945C1250.24 309.304 1244.17 311.125 1199.84 311.125H1151.26V274.692V238.258H1205.31C1255.1 238.258 1260.56 239.473 1269.06 251.617Z" fill="#1E3C59"/>
<path d="M1770.63 189.684C1759.1 201.221 1758.49 209.722 1758.49 337.239C1758.49 461.113 1759.7 473.865 1769.42 482.974C1783.99 496.333 1808.89 495.725 1821.03 482.366C1828.93 473.865 1831.36 459.292 1831.36 424.68V377.924H1884.79C1952.8 377.316 1983.16 365.172 2000.77 329.953C2028.1 277.124 2011.7 215.187 1964.95 190.898C1941.26 179.361 1929.12 177.539 1860.5 177.539C1790.67 177.539 1781.56 178.754 1770.63 189.684ZM1927.91 254.049C1943.69 274.088 1944.3 293.519 1930.33 309.914C1921.83 319.63 1909.69 323.273 1875.68 326.309L1831.36 329.345V283.804V238.262H1873.25C1911.51 238.262 1916.37 239.476 1927.91 254.049Z" fill="#1E3C59"/>
<path d="M2091.86 189.073C2077.28 200.61 2077.28 203.039 2075.46 323.877C2074.25 391.886 2074.85 453.823 2077.28 461.717C2083.36 486.006 2112.5 493.293 2209.05 493.293C2301.35 493.293 2323.21 487.828 2323.21 463.539C2323.21 438.035 2305.6 432.57 2224.23 432.57H2147.11V396.137V359.703H2215.73C2275.24 359.703 2286.17 357.882 2294.67 348.773C2308.03 334.2 2307.42 327.52 2294.06 315.376C2284.95 306.875 2269.77 305.053 2215.12 305.053H2147.11V271.656V238.258H2222.41C2283.13 238.258 2300.14 236.437 2307.42 228.543C2318.96 217.613 2319.57 205.468 2311.07 189.073C2304.99 178.143 2297.1 177.536 2205.41 177.536C2116.75 177.536 2104.61 178.75 2091.86 189.073Z" fill="#1E3C59"/>
<path d="M3561.09 190.895C3548.34 205.468 3547.73 209.111 3547.73 339.665C3547.73 461.11 3548.94 473.862 3558.66 482.97C3564.73 489.042 3576.27 493.293 3584.77 493.293C3612.7 493.293 3617.56 484.792 3620.6 431.356L3623.63 380.956L3681.32 377.92C3744.47 374.884 3769.98 364.561 3793.05 333.593C3810.66 309.304 3811.27 246.152 3793.05 222.47C3764.51 184.215 3754.79 180.572 3661.28 178.75C3576.88 176.928 3574.45 176.928 3561.09 190.895ZM3704.39 238.865C3737.79 250.403 3742.65 300.802 3711.68 317.198C3704.39 321.448 3681.93 324.484 3661.28 325.091L3623.63 326.306L3621.81 278.942L3619.99 232.186H3652.78C3671 232.186 3694.07 235.222 3704.39 238.865Z" fill="#1E3C59"/>
</svg>
